<svg id="SvgjsSvg2546" width="1788" height="961" xmlns="http://www.w3.org/2000/svg" version="1.1" xmlns:xlink="http://www.w3.org/1999/xlink" xmlns:svgjs="http://svgjs.com/svgjs"><defs id="SvgjsDefs2547"><marker id="SvgjsMarker2620" markerWidth="16" markerHeight="12" refX="16" refY="6" viewBox="0 0 16 12" orient="auto" markerUnits="userSpaceOnUse"><path id="SvgjsPath2621" d="M0,2 L14,6 L0,11 L0,2" fill="#33ffff" stroke="#33ffff" stroke-width="2"></path></marker><marker id="SvgjsMarker2624" markerWidth="16" markerHeight="12" refX="16" refY="6" viewBox="0 0 16 12" orient="auto" markerUnits="userSpaceOnUse"><path id="SvgjsPath2625" d="M0,2 L14,6 L0,11 L0,2" fill="#33ffff" stroke="#33ffff" stroke-width="2"></path></marker><marker id="SvgjsMarker2628" markerWidth="16" markerHeight="12" refX="16" refY="6" viewBox="0 0 16 12" orient="auto" markerUnits="userSpaceOnUse"><path id="SvgjsPath2629" d="M0,2 L14,6 L0,11 L0,2" fill="#33ffff" stroke="#33ffff" stroke-width="2"></path></marker><marker id="SvgjsMarker2644" markerWidth="16" markerHeight="12" refX="16" refY="6" viewBox="0 0 16 12" orient="auto" markerUnits="userSpaceOnUse"><path id="SvgjsPath2645" d="M0,2 L14,6 L0,11 L0,2" fill="#33ffff" stroke="#33ffff" stroke-width="2"></path></marker><marker id="SvgjsMarker2662" markerWidth="16" markerHeight="12" refX="16" refY="6" viewBox="0 0 16 12" orient="auto" markerUnits="userSpaceOnUse"><path id="SvgjsPath2663" d="M0,2 L14,6 L0,11 L0,2" fill="#6666ff" stroke="#6666ff" stroke-width="2"></path></marker><marker id="SvgjsMarker2666" markerWidth="16" markerHeight="12" refX="16" refY="6" viewBox="0 0 16 12" orient="auto" markerUnits="userSpaceOnUse"><path id="SvgjsPath2667" d="M0,2 L14,6 L0,11 L0,2" fill="#6666ff" stroke="#6666ff" stroke-width="2"></path></marker><marker id="SvgjsMarker2676" markerWidth="16" markerHeight="12" refX="16" refY="6" viewBox="0 0 16 12" orient="auto" markerUnits="userSpaceOnUse"><path id="SvgjsPath2677" d="M0,2 L14,6 L0,11 L0,2" fill="#33ffff" stroke="#33ffff" stroke-width="2"></path></marker><marker id="SvgjsMarker2680" markerWidth="16" markerHeight="12" refX="16" refY="6" viewBox="0 0 16 12" orient="auto" markerUnits="userSpaceOnUse"><path id="SvgjsPath2681" d="M0,2 L14,6 L0,11 L0,2" fill="#3333ff" stroke="#3333ff" stroke-width="2"></path></marker><marker id="SvgjsMarker2684" markerWidth="16" markerHeight="12" refX="16" refY="6" viewBox="0 0 16 12" orient="auto" markerUnits="userSpaceOnUse"><path id="SvgjsPath2685" d="M0,2 L14,6 L0,11 L0,2" fill="#3333ff" stroke="#3333ff" stroke-width="2"></path></marker><marker id="SvgjsMarker2706" markerWidth="16" markerHeight="12" refX="16" refY="6" viewBox="0 0 16 12" orient="auto" markerUnits="userSpaceOnUse"><path id="SvgjsPath2707" d="M0,2 L14,6 L0,11 L0,2" fill="#ff9999" stroke="#ff9999" stroke-width="2"></path></marker><marker id="SvgjsMarker2756" markerWidth="16" markerHeight="12" refX="16" refY="6" viewBox="0 0 16 12" orient="auto" markerUnits="userSpaceOnUse"><path id="SvgjsPath2757" d="M0,2 L14,6 L0,11 L0,2" fill="#ff3333" stroke="#ff3333" stroke-width="2"></path></marker><marker id="SvgjsMarker2760" markerWidth="16" markerHeight="12" refX="16" refY="6" viewBox="0 0 16 12" orient="auto" markerUnits="userSpaceOnUse"><path id="SvgjsPath2761" d="M0,2 L14,6 L0,11 L0,2" fill="#ff3333" stroke="#ff3333" stroke-width="2"></path></marker><marker id="SvgjsMarker2764" markerWidth="16" markerHeight="12" refX="16" refY="6" viewBox="0 0 16 12" orient="auto" markerUnits="userSpaceOnUse"><path id="SvgjsPath2765" d="M0,2 L14,6 L0,11 L0,2" fill="#ff3333" stroke="#ff3333" stroke-width="2"></path></marker><marker id="SvgjsMarker2774" markerWidth="16" markerHeight="12" refX="16" refY="6" viewBox="0 0 16 12" orient="auto" markerUnits="userSpaceOnUse"><path id="SvgjsPath2775" d="M0,2 L14,6 L0,11 L0,2" fill="#ff3333" stroke="#ff3333" stroke-width="2"></path></marker><marker id="SvgjsMarker2784" markerWidth="16" markerHeight="12" refX="16" refY="6" viewBox="0 0 16 12" orient="auto" markerUnits="userSpaceOnUse"><path id="SvgjsPath2785" d="M0,2 L14,6 L0,11 L0,2" fill="#ff9999" stroke="#ff9999" stroke-width="2"></path></marker><marker id="SvgjsMarker2800" markerWidth="16" markerHeight="12" refX="16" refY="6" viewBox="0 0 16 12" orient="auto" markerUnits="userSpaceOnUse"><path id="SvgjsPath2801" d="M0,2 L14,6 L0,11 L0,2" fill="#ff3333" stroke="#ff3333" stroke-width="2"></path></marker><marker id="SvgjsMarker2804" markerWidth="16" markerHeight="12" refX="16" refY="6" viewBox="0 0 16 12" orient="auto" markerUnits="userSpaceOnUse"><path id="SvgjsPath2805" d="M0,2 L14,6 L0,11 L0,2" fill="#ff3333" stroke="#ff3333" stroke-width="2"></path></marker><marker id="SvgjsMarker2830" markerWidth="16" markerHeight="12" refX="16" refY="6" viewBox="0 0 16 12" orient="auto" markerUnits="userSpaceOnUse"><path id="SvgjsPath2831" d="M0,2 L14,6 L0,11 L0,2" fill="#ff3333" stroke="#ff3333" stroke-width="2"></path></marker><marker id="SvgjsMarker2834" markerWidth="16" markerHeight="12" refX="16" refY="6" viewBox="0 0 16 12" orient="auto" markerUnits="userSpaceOnUse"><path id="SvgjsPath2835" d="M0,2 L14,6 L0,11 L0,2" fill="#000000" stroke="#000000" stroke-width="2"></path></marker><marker id="SvgjsMarker2838" markerWidth="16" markerHeight="12" refX="16" refY="6" viewBox="0 0 16 12" orient="auto" markerUnits="userSpaceOnUse"><path id="SvgjsPath2839" d="M0,2 L14,6 L0,11 L0,2" fill="#000000" stroke="#000000" stroke-width="2"></path></marker><marker id="SvgjsMarker2900" markerWidth="16" markerHeight="12" refX="16" refY="6" viewBox="0 0 16 12" orient="auto" markerUnits="userSpaceOnUse"><path id="SvgjsPath2901" d="M0,2 L14,6 L0,11 L0,2" fill="#ff00ff" stroke="#ff00ff" stroke-width="2"></path></marker><marker id="SvgjsMarker2922" markerWidth="16" markerHeight="12" refX="16" refY="6" viewBox="0 0 16 12" orient="auto" markerUnits="userSpaceOnUse"><path id="SvgjsPath2923" d="M0,2 L14,6 L0,11 L0,2" fill="#323232" stroke="#323232" stroke-width="2"></path></marker></defs><g id="SvgjsG2548" transform="translate(1483,25)"><path id="SvgjsPath2549" d="M 0 0L 250 0L 250 708L 0 708Z" stroke="#ff00ff" stroke-width="2" fill="none"></path><path id="SvgjsPath2550" d="M 0 0L 250 0L 250 40L 0 40Z" stroke="#ff00ff" stroke-width="2" fill-opacity="1" fill="#ffffff"></path><g id="SvgjsG2551"><text id="SvgjsText2552" font-family="微软雅黑" text-anchor="middle" font-size="16px" width="156" fill="#323232" font-weight="400" align="middle" anchor="middle" family="微软雅黑" size="16px" weight="400" font-style="" y="7.6" transform="rotate(0)"><tspan id="SvgjsTspan2553" dy="20" x="125"><tspan id="SvgjsTspan2554" style="text-decoration:;">4. git merge new-branch</tspan></tspan></text></g></g><g id="SvgjsG2555" transform="translate(967,25)"><path id="SvgjsPath2556" d="M 0 0L 504 0L 504 707L 0 707Z" stroke="#ff3333" stroke-width="2" fill="none"></path><path id="SvgjsPath2557" d="M 0 0L 504 0L 504 40L 0 40Z" stroke="#ff3333" stroke-width="2" fill-opacity="1" fill="#ffffff"></path><g id="SvgjsG2558"><text id="SvgjsText2559" font-family="微软雅黑" text-anchor="middle" font-size="16px" width="223" fill="#323232" font-weight="400" align="middle" anchor="middle" family="微软雅黑" size="16px" weight="400" font-style="" y="7.6" transform="rotate(0)"><tspan id="SvgjsTspan2560" dy="20" x="252"><tspan id="SvgjsTspan2561" style="text-decoration:;">3. git branch / git add / git commit </tspan></tspan></text></g></g><g id="SvgjsG2562" transform="translate(25,484)"><path id="SvgjsPath2563" d="M 0 0L 1738 0L 1738 98L 0 98Z" stroke="#007fff" stroke-width="2" fill="none"></path><path id="SvgjsPath2564" d="M 0 0L 40 0L 40 98L 0 98Z" stroke="#007fff" stroke-width="2" fill-opacity="1" fill="#ffff00"></path><g id="SvgjsG2565"><text id="SvgjsText2566" font-family="微软雅黑" text-anchor="middle" font-size="16px" width="60" fill="#323232" font-weight="400" align="middle" anchor="middle" family="微软雅黑" size="16px" weight="400" font-style="" y="7.6" transform="rotate(270)"><tspan id="SvgjsTspan2567" dy="20" x="-49"><tspan id="SvgjsTspan2568" style="text-decoration:;">1. git add</tspan></tspan></text></g></g><g id="SvgjsG2569" transform="translate(569,28)"><path id="SvgjsPath2570" d="M 0 0L 389 0L 389 707L 0 707Z" stroke="#3333ff" stroke-width="2" fill="none"></path><path id="SvgjsPath2571" d="M 0 0L 389 0L 389 40L 0 40Z" stroke="#3333ff" stroke-width="2" fill-opacity="1" fill="#ffffff"></path><g id="SvgjsG2572"><text id="SvgjsText2573" font-family="微软雅黑" text-anchor="middle" font-size="16px" width="142" fill="#323232" font-weight="400" align="middle" anchor="middle" family="微软雅黑" size="16px" weight="400" font-style="" y="7.6" transform="rotate(0)"><tspan id="SvgjsTspan2574" dy="20" x="194.5"><tspan id="SvgjsTspan2575" style="text-decoration:;">2. git add / git commit</tspan></tspan></text></g></g><g id="SvgjsG2576" transform="translate(118,26)"><path id="SvgjsPath2577" d="M 0 0L 437 0L 437 711L 0 711Z" stroke="#33ffff" stroke-width="2" fill="none"></path><path id="SvgjsPath2578" d="M 0 0L 437 0L 437 40L 0 40Z" stroke="#33ffff" stroke-width="2" fill-opacity="1" fill="#ffffff"></path><g id="SvgjsG2579"><text id="SvgjsText2580" font-family="微软雅黑" text-anchor="middle" font-size="16px" width="142" fill="#323232" font-weight="400" align="middle" anchor="middle" family="微软雅黑" size="16px" weight="400" font-style="" y="7.6" transform="rotate(0)"><tspan id="SvgjsTspan2581" dy="20" x="218.5"><tspan id="SvgjsTspan2582" style="text-decoration:;">1. git add / git commit</tspan></tspan></text></g></g><g id="SvgjsG2583" transform="translate(25,74)"><path id="SvgjsPath2584" d="M 0 0L 1738 0L 1738 381.5L 0 381.5Z" stroke="#323232" stroke-width="2" fill="none"></path><path id="SvgjsPath2585" d="M 0 0L 40 0L 40 381.5L 0 381.5Z" stroke="#323232" stroke-width="2" fill-opacity="1" fill="#ff3333"></path><g id="SvgjsG2586"><text id="SvgjsText2587" font-family="微软雅黑" text-anchor="middle" font-size="16px" width="86" fill="#323232" font-weight="400" align="middle" anchor="middle" family="微软雅黑" size="16px" weight="400" font-style="" y="7.6" transform="rotate(270)"><tspan id="SvgjsTspan2588" dy="20" x="-190.5"><tspan id="SvgjsTspan2589" style="text-decoration:;">2. git commit</tspan></tspan></text></g></g><g id="SvgjsG2590" transform="translate(169,503)"><path id="SvgjsPath2591" d="M 0 0L 101 0L 101 70L 0 70Z" stroke="#323232" stroke-width="2" fill-opacity="1" fill="#99ffff"></path><g id="SvgjsG2592"><text id="SvgjsText2593" font-family="微软雅黑" text-anchor="middle" font-size="13px" width="38" fill="#323232" font-weight="400" align="middle" anchor="middle" family="微软雅黑" size="13px" weight="400" font-style="" y="17.05" transform="rotate(0)"><tspan id="SvgjsTspan2594" dy="16" x="50.5"><tspan id="SvgjsTspan2595" style="text-decoration:;font-size: inherit;">58c9bd</tspan></tspan><tspan id="SvgjsTspan2596" dy="16" x="50.5"><tspan id="SvgjsTspan2597" style="text-decoration:;">111</tspan></tspan></text></g></g><g id="SvgjsG2598" transform="translate(434,506)"><path id="SvgjsPath2599" d="M 0 0L 100 0L 100 70L 0 70Z" stroke="#323232" stroke-width="2" fill-opacity="1" fill="#99ffff"></path><g id="SvgjsG2600"><text id="SvgjsText2601" font-family="微软雅黑" text-anchor="middle" font-size="13px" width="38" fill="#323232" font-weight="400" align="middle" anchor="middle" family="微软雅黑" size="13px" weight="400" font-style="" y="17.05" transform="rotate(0)"><tspan id="SvgjsTspan2602" dy="16" x="50"><tspan id="SvgjsTspan2603" style="text-decoration:;">c20090</tspan></tspan><tspan id="SvgjsTspan2604" dy="16" x="50"><tspan id="SvgjsTspan2605" style="text-decoration:;">222</tspan></tspan></text></g></g><g id="SvgjsG2606" transform="translate(294,296)"><path id="SvgjsPath2607" d="M 62.5 0L 125 113L 0 113Z" stroke="#323232" stroke-width="2" fill-opacity="1" fill="#33ffff"></path><g id="SvgjsG2608"><text id="SvgjsText2609" font-family="微软雅黑" text-anchor="middle" font-size="13px" width="37" fill="#323232" font-weight="400" align="middle" anchor="middle" family="微软雅黑" size="13px" weight="400" font-style="" y="60.675" transform="rotate(0)"><tspan id="SvgjsTspan2610" dy="16" x="62.5"><tspan id="SvgjsTspan2611" style="text-decoration:;">d964f4</tspan></tspan></text></g></g><g id="SvgjsG2612" transform="translate(305.5,125)"><path id="SvgjsPath2613" d="M 0 47.5C 0 -15.833333333333334 102 -15.833333333333334 102 47.5C 102 110.83333333333333 0 110.83333333333333 0 47.5Z" stroke="#323232" stroke-width="2" fill-opacity="1" fill="#33ffff"></path><g id="SvgjsG2614"><text id="SvgjsText2615" font-family="微软雅黑" text-anchor="middle" font-size="13px" width="38" fill="#323232" font-weight="400" align="middle" anchor="middle" family="微软雅黑" size="13px" weight="400" font-style="" y="37.55" transform="rotate(0)"><tspan id="SvgjsTspan2616" dy="16" x="51"><tspan id="SvgjsTspan2617" style="text-decoration:;">73622e</tspan></tspan></text></g></g><g id="SvgjsG2618"><path id="SvgjsPath2619" d="M294.8126155740733 408.1547634765186L219.5 408.1547634765186L219.5 503" stroke="#33ffff" stroke-width="2" fill="none" marker-end="url(#SvgjsMarker2620)"></path></g><g id="SvgjsG2622"><path id="SvgjsPath2623" d="M418.09369221296333 407.5773817382593L484 407.5773817382593L484 506" stroke="#33ffff" stroke-width="2" fill="none" marker-end="url(#SvgjsMarker2624)"></path></g><g id="SvgjsG2626"><path id="SvgjsPath2627" d="M356.5 220L356.5 258L356.5 258L356.5 296" stroke="#33ffff" stroke-width="2" fill="none" marker-end="url(#SvgjsMarker2628)"></path></g><g id="SvgjsG2630" transform="translate(154,147.5)"><path id="SvgjsPath2631" d="M 16.666666666666668 0L 83.33333333333333 0C 105.55555555555556 0 105.55555555555556 50 83.33333333333333 50L 16.666666666666668 50C -5.555555555555556 50 -5.555555555555556 0 16.666666666666668 0Z" stroke="#323232" stroke-width="2" fill-opacity="1" fill="#33ffff"></path><g id="SvgjsG2632"><text id="SvgjsText2633" font-family="微软雅黑" text-anchor="middle" font-size="13px" width="35" fill="#323232" font-weight="400" align="middle" anchor="middle" family="微软雅黑" size="13px" weight="400" font-style="" y="15.05" transform="rotate(0)"><tspan id="SvgjsTspan2634" dy="16" x="50"><tspan id="SvgjsTspan2635" style="text-decoration:;">master</tspan></tspan></text></g></g><g id="SvgjsG2636" transform="translate(154,78)"><path id="SvgjsPath2637" d="M 16.666666666666668 0L 83.33333333333333 0C 105.55555555555556 0 105.55555555555556 50 83.33333333333333 50L 16.666666666666668 50C -5.555555555555556 50 -5.555555555555556 0 16.666666666666668 0Z" stroke="#323232" stroke-width="2" fill-opacity="1" fill="#33ffff"></path><g id="SvgjsG2638"><text id="SvgjsText2639" font-family="微软雅黑" text-anchor="middle" font-size="13px" width="36" fill="#323232" font-weight="400" align="middle" anchor="middle" family="微软雅黑" size="13px" weight="400" font-style="" y="15.05" transform="rotate(0)"><tspan id="SvgjsTspan2640" dy="16" x="50"><tspan id="SvgjsTspan2641" style="text-decoration:;">HEAD</tspan></tspan></text></g></g><g id="SvgjsG2642"><path id="SvgjsPath2643" d="M204 128L204 137.75L204 137.75L204 147.5" stroke="#33ffff" stroke-width="2" fill="none" marker-end="url(#SvgjsMarker2644)"></path></g><g id="SvgjsG2646" transform="translate(834,498)"><path id="SvgjsPath2647" d="M 0 0L 100 0L 100 70L 0 70Z" stroke="#6666ff" stroke-width="2" fill-opacity="1" fill="#6666ff"></path><g id="SvgjsG2648"><text id="SvgjsText2649" font-family="微软雅黑" text-anchor="middle" font-size="13px" width="38" fill="#323232" font-weight="400" align="middle" anchor="middle" family="微软雅黑" size="13px" weight="400" font-style="" y="17.05" transform="rotate(0)"><tspan id="SvgjsTspan2650" dy="16" x="50"><tspan id="SvgjsTspan2651" style="text-decoration:;">55bd0a</tspan></tspan><tspan id="SvgjsTspan2652" dy="16" x="50"><tspan id="SvgjsTspan2653" style="text-decoration:;">333</tspan></tspan></text></g></g><g id="SvgjsG2654" transform="translate(642,301)"><path id="SvgjsPath2655" d="M 62.5 0L 125 113L 0 113Z" stroke="#323232" stroke-width="2" fill-opacity="1" fill="#3333ff"></path><g id="SvgjsG2656"><text id="SvgjsText2657" font-family="微软雅黑" text-anchor="middle" font-size="13px" width="38" fill="#323232" font-weight="400" align="middle" anchor="middle" family="微软雅黑" size="13px" weight="400" font-style="" y="60.675" transform="rotate(0)"><tspan id="SvgjsTspan2658" dy="16" x="62.5"><tspan id="SvgjsTspan2659" style="text-decoration:;">6174c3</tspan></tspan></text></g></g><g id="SvgjsG2660"><path id="SvgjsPath2661" d="M763.467911113762 412.7144247806269L884 412.7144247806269L884 498" stroke="#6666ff" stroke-width="2" fill="none" marker-end="url(#SvgjsMarker2662)"></path></g><g id="SvgjsG2664"><path id="SvgjsPath2665" d="M643.924038765061 410.13175911166536L516 410.13175911166536L516 506" stroke="#6666ff" stroke-width="2" fill="none" marker-end="url(#SvgjsMarker2666)"></path></g><g id="SvgjsG2668" transform="translate(653.5,125)"><path id="SvgjsPath2669" d="M 0 47.5C 0 -15.833333333333334 102 -15.833333333333334 102 47.5C 102 110.83333333333333 0 110.83333333333333 0 47.5Z" stroke="#323232" stroke-width="2" fill-opacity="1" fill="#3333ff"></path><g id="SvgjsG2670"><text id="SvgjsText2671" font-family="微软雅黑" text-anchor="middle" font-size="13px" width="38" fill="#323232" font-weight="400" align="middle" anchor="middle" family="微软雅黑" size="13px" weight="400" font-style="" y="37.55" transform="rotate(0)"><tspan id="SvgjsTspan2672" dy="16" x="51"><tspan id="SvgjsTspan2673" style="text-decoration:;">558e28</tspan></tspan></text></g></g><g id="SvgjsG2674"><path id="SvgjsPath2675" d="M254 172.5L279.75 172.5L279.75 172.5L305.5 172.5" stroke="#33ffff" stroke-width="2" fill="none" marker-end="url(#SvgjsMarker2676)"></path></g><g id="SvgjsG2678"><path id="SvgjsPath2679" d="M653.5 172.5L530.5 172.5L530.5 172.5L407.5 172.5" stroke="#3333ff" stroke-width="2" fill="none" marker-end="url(#SvgjsMarker2680)"></path></g><g id="SvgjsG2682"><path id="SvgjsPath2683" d="M704.5 220L704.5 260.5L704.5 260.5L704.5 301" stroke="#3333ff" stroke-width="2" fill="none" marker-end="url(#SvgjsMarker2684)"></path></g><g id="SvgjsG2686" transform="translate(828,82)"><path id="SvgjsPath2687" d="M 16.666666666666668 0L 83.33333333333333 0C 105.55555555555556 0 105.55555555555556 50 83.33333333333333 50L 16.666666666666668 50C -5.555555555555556 50 -5.555555555555556 0 16.666666666666668 0Z" stroke="#323232" stroke-width="2" fill-opacity="1" fill="#ffffff"></path><g id="SvgjsG2688"><text id="SvgjsText2689" font-family="微软雅黑" text-anchor="middle" font-size="13px" width="35" fill="#323232" font-weight="400" align="middle" anchor="middle" family="微软雅黑" size="13px" weight="400" font-style="" y="15.05" transform="rotate(0)"><tspan id="SvgjsTspan2690" dy="16" x="50"><tspan id="SvgjsTspan2691" style="text-decoration:;">master</tspan></tspan></text></g></g><g id="SvgjsG2692" transform="translate(572,82)"><path id="SvgjsPath2693" d="M 16.666666666666668 0L 83.33333333333333 0C 105.55555555555556 0 105.55555555555556 50 83.33333333333333 50L 16.666666666666668 50C -5.555555555555556 50 -5.555555555555556 0 16.666666666666668 0Z" stroke="#323232" stroke-width="2" fill-opacity="1" fill="#ffffff"></path><g id="SvgjsG2694"><text id="SvgjsText2695" font-family="微软雅黑" text-anchor="middle" font-size="13px" width="36" fill="#323232" font-weight="400" align="middle" anchor="middle" family="微软雅黑" size="13px" weight="400" font-style="" y="15.05" transform="rotate(0)"><tspan id="SvgjsTspan2696" dy="16" x="50"><tspan id="SvgjsTspan2697" style="text-decoration:;">HEAD</tspan></tspan></text></g></g><g id="SvgjsG2698" transform="translate(986,213.5)"><path id="SvgjsPath2699" d="M 16.666666666666668 0L 83.33333333333333 0C 105.55555555555556 0 105.55555555555556 50 83.33333333333333 50L 16.666666666666668 50C -5.555555555555556 50 -5.555555555555556 0 16.666666666666668 0Z" stroke="#323232" stroke-width="2" fill-opacity="1" fill="#ff9999"></path><g id="SvgjsG2700"><text id="SvgjsText2701" font-family="微软雅黑" text-anchor="middle" font-size="13px" width="61" fill="#323232" font-weight="400" align="middle" anchor="middle" family="微软雅黑" size="13px" weight="400" font-style="" y="15.05" transform="rotate(0)"><tspan id="SvgjsTspan2702" dy="16" x="50"><tspan id="SvgjsTspan2703" style="text-decoration:;">new-branch</tspan></tspan></text></g></g><g id="SvgjsG2704"><path id="SvgjsPath2705" d="M986 238.5L736.7144247806269 238.5L736.7144247806269 209.46791111376206" stroke="#ff9999" stroke-width="2" fill="none" marker-end="url(#SvgjsMarker2706)"></path></g><g id="SvgjsG2708" transform="translate(1318,498)"><path id="SvgjsPath2709" d="M 0 0L 100 0L 100 70L 0 70Z" stroke="#323232" stroke-width="2" fill-opacity="1" fill="#ff6666"></path><g id="SvgjsG2710"><text id="SvgjsText2711" font-family="微软雅黑" text-anchor="middle" font-size="13px" width="38" fill="#323232" font-weight="400" align="middle" anchor="middle" family="微软雅黑" size="13px" weight="400" font-style="" y="17.05" transform="rotate(0)"><tspan id="SvgjsTspan2712" dy="16" x="50"><tspan id="SvgjsTspan2713" style="text-decoration:;">2e799a</tspan></tspan><tspan id="SvgjsTspan2714" dy="16" x="50"><tspan id="SvgjsTspan2715" style="text-decoration:;">file3</tspan></tspan></text></g></g><g id="SvgjsG2716" transform="translate(150,604)"><path id="SvgjsPath2717" d="M 0 0L 111 0L 127 16L 127 42L 0 42L 0 0Z" stroke="none" fill-opacity="1" fill="#ccffff"></path><path id="SvgjsPath2718" d="M 111 0L 111 16L 127 16Z" stroke="none" fill-opacity="1" fill="#cdcdcd"></path><path id="SvgjsPath2719" d="M 0 0L 111 0L 127 16L 127 42L 0 42L 0 0Z" stroke="none" fill="none"></path><g id="SvgjsG2720"><text id="SvgjsText2721" font-family="微软雅黑" text-anchor="middle" font-size="13px" width="23" fill="#323232" font-weight="400" align="middle" anchor="middle" family="微软雅黑" size="13px" weight="400" font-style="" y="11.05" transform="rotate(0)"><tspan id="SvgjsTspan2722" dy="16" x="63.5"><tspan id="SvgjsTspan2723" style="text-decoration:;">file1</tspan></tspan></text></g></g><g id="SvgjsG2724" transform="translate(419,604)"><path id="SvgjsPath2725" d="M 0 0L 111 0L 127 16L 127 42L 0 42L 0 0Z" stroke="none" fill-opacity="1" fill="#ccffff"></path><path id="SvgjsPath2726" d="M 111 0L 111 16L 127 16Z" stroke="none" fill-opacity="1" fill="#cdcdcd"></path><path id="SvgjsPath2727" d="M 0 0L 111 0L 127 16L 127 42L 0 42L 0 0Z" stroke="none" fill="none"></path><g id="SvgjsG2728"><text id="SvgjsText2729" font-family="微软雅黑" text-anchor="middle" font-size="13px" width="23" fill="#323232" font-weight="400" align="middle" anchor="middle" family="微软雅黑" size="13px" weight="400" font-style="" y="11.05" transform="rotate(0)"><tspan id="SvgjsTspan2730" dy="16" x="63.5"><tspan id="SvgjsTspan2731" style="text-decoration:;">file2</tspan></tspan></text></g></g><g id="SvgjsG2732" transform="translate(820.5,612)"><path id="SvgjsPath2733" d="M 0 0L 111 0L 127 16L 127 42L 0 42L 0 0Z" stroke="none" fill-opacity="1" fill="#9999ff"></path><path id="SvgjsPath2734" d="M 111 0L 111 16L 127 16Z" stroke="none" fill-opacity="1" fill="#cdcdcd"></path><path id="SvgjsPath2735" d="M 0 0L 111 0L 127 16L 127 42L 0 42L 0 0Z" stroke="none" fill="none"></path><g id="SvgjsG2736"><text id="SvgjsText2737" font-family="微软雅黑" text-anchor="middle" font-size="13px" width="23" fill="#323232" font-weight="400" align="middle" anchor="middle" family="微软雅黑" size="13px" weight="400" font-style="" y="11.05" transform="rotate(0)"><tspan id="SvgjsTspan2738" dy="16" x="63.5"><tspan id="SvgjsTspan2739" style="text-decoration:;">file1</tspan></tspan></text></g></g><g id="SvgjsG2740" transform="translate(1314.5,612)"><path id="SvgjsPath2741" d="M 0 0L 111 0L 127 16L 127 42L 0 42L 0 0Z" stroke="none" fill-opacity="1" fill="#ff6666"></path><path id="SvgjsPath2742" d="M 111 0L 111 16L 127 16Z" stroke="none" fill-opacity="1" fill="#cdcdcd"></path><path id="SvgjsPath2743" d="M 0 0L 111 0L 127 16L 127 42L 0 42L 0 0Z" stroke="none" fill="none"></path><g id="SvgjsG2744"><text id="SvgjsText2745" font-family="微软雅黑" text-anchor="middle" font-size="13px" width="23" fill="#323232" font-weight="400" align="middle" anchor="middle" family="微软雅黑" size="13px" weight="400" font-style="" y="11.05" transform="rotate(0)"><tspan id="SvgjsTspan2746" dy="16" x="63.5"><tspan id="SvgjsTspan2747" style="text-decoration:;">file3</tspan></tspan></text></g></g><g id="SvgjsG2748" transform="translate(1124,296)"><path id="SvgjsPath2749" d="M 62.5 0L 125 113L 0 113Z" stroke="#323232" stroke-width="2" fill-opacity="1" fill="#ff3333"></path><g id="SvgjsG2750"><text id="SvgjsText2751" font-family="微软雅黑" text-anchor="middle" font-size="13px" width="39" fill="#323232" font-weight="400" align="middle" anchor="middle" family="微软雅黑" size="13px" weight="400" font-style="" y="60.675" transform="rotate(0)"><tspan id="SvgjsTspan2752" dy="16" x="62.5"><tspan id="SvgjsTspan2753" style="text-decoration:;">b72118</tspan></tspan></text></g></g><g id="SvgjsG2754"><path id="SvgjsPath2755" d="M1124.4641016151377 408.5L1029.2320508075688 408.5L1029.2320508075688 533L934 533" stroke="#ff3333" stroke-width="2" fill="none" marker-end="url(#SvgjsMarker2756)"></path></g><g id="SvgjsG2758"><path id="SvgjsPath2759" d="M1248.2679491924312 408.5L1368 408.5L1368 498" stroke="#ff3333" stroke-width="2" fill="none" marker-end="url(#SvgjsMarker2760)"></path></g><g id="SvgjsG2762"><path id="SvgjsPath2763" d="M1186.5 409L1186.5 606L484 606L484 576" stroke="#ff3333" stroke-width="2" fill="none" marker-end="url(#SvgjsMarker2764)"></path></g><g id="SvgjsG2766" transform="translate(1135.5,147.5)"><path id="SvgjsPath2767" d="M 0 47.5C 0 -15.833333333333334 102 -15.833333333333334 102 47.5C 102 110.83333333333333 0 110.83333333333333 0 47.5Z" stroke="#323232" stroke-width="2" fill-opacity="1" fill="#ff3333"></path><g id="SvgjsG2768"><text id="SvgjsText2769" font-family="微软雅黑" text-anchor="middle" font-size="13px" width="35" fill="#323232" font-weight="400" align="middle" anchor="middle" family="微软雅黑" size="13px" weight="400" font-style="" y="37.55" transform="rotate(0)"><tspan id="SvgjsTspan2770" dy="16" x="51"><tspan id="SvgjsTspan2771" style="text-decoration:;">ce907f</tspan></tspan></text></g></g><g id="SvgjsG2772"><path id="SvgjsPath2773" d="M1135.5 195L942.5779227453718 195L942.5779227453718 195.04167216781514L749.6558454907434 195.04167216781514" stroke="#ff3333" stroke-width="2" fill="none" marker-end="url(#SvgjsMarker2774)"></path></g><g id="SvgjsG2776" transform="translate(986,297)"><path id="SvgjsPath2777" d="M 16.666666666666668 0L 83.33333333333333 0C 105.55555555555556 0 105.55555555555556 50 83.33333333333333 50L 16.666666666666668 50C -5.555555555555556 50 -5.555555555555556 0 16.666666666666668 0Z" stroke="#ff6666" stroke-width="2" fill-opacity="1" fill="#ff9999"></path><g id="SvgjsG2778"><text id="SvgjsText2779" font-family="微软雅黑" text-anchor="middle" font-size="13px" width="36" fill="#323232" font-weight="400" align="middle" anchor="middle" family="微软雅黑" size="13px" weight="400" font-style="" y="15.05" transform="rotate(0)"><tspan id="SvgjsTspan2780" dy="16" x="50"><tspan id="SvgjsTspan2781" style="text-decoration:;">HEAD</tspan></tspan></text></g></g><g id="SvgjsG2782"><path id="SvgjsPath2783" d="M1036 297L1036 280.25L1036 280.25L1036 263.5" stroke="#ff9999" stroke-width="2" fill="none" marker-end="url(#SvgjsMarker2784)"></path></g><g id="SvgjsG2786" transform="translate(1309,170)"><path id="SvgjsPath2787" d="M 16.666666666666668 0L 83.33333333333333 0C 105.55555555555556 0 105.55555555555556 50 83.33333333333333 50L 16.666666666666668 50C -5.555555555555556 50 -5.555555555555556 0 16.666666666666668 0Z" stroke="#323232" stroke-width="2" fill-opacity="1" fill="#ff3333"></path><g id="SvgjsG2788"><text id="SvgjsText2789" font-family="微软雅黑" text-anchor="middle" font-size="13px" width="61" fill="#323232" font-weight="400" align="middle" anchor="middle" family="微软雅黑" size="13px" weight="400" font-style="" y="15.05" transform="rotate(0)"><tspan id="SvgjsTspan2790" dy="16" x="50"><tspan id="SvgjsTspan2791" style="text-decoration:;">new-branch</tspan></tspan></text></g></g><g id="SvgjsG2792" transform="translate(1309,301)"><path id="SvgjsPath2793" d="M 16.666666666666668 0L 83.33333333333333 0C 105.55555555555556 0 105.55555555555556 50 83.33333333333333 50L 16.666666666666668 50C -5.555555555555556 50 -5.555555555555556 0 16.666666666666668 0Z" stroke="#ff6666" stroke-width="2" fill-opacity="1" fill="#ff3333"></path><g id="SvgjsG2794"><text id="SvgjsText2795" font-family="微软雅黑" text-anchor="middle" font-size="13px" width="36" fill="#323232" font-weight="400" align="middle" anchor="middle" family="微软雅黑" size="13px" weight="400" font-style="" y="15.05" transform="rotate(0)"><tspan id="SvgjsTspan2796" dy="16" x="50"><tspan id="SvgjsTspan2797" style="text-decoration:;">HEAD</tspan></tspan></text></g></g><g id="SvgjsG2798"><path id="SvgjsPath2799" d="M1359 301L1359 260.5L1359 260.5L1359 220" stroke="#ff3333" stroke-width="2" fill="none" marker-end="url(#SvgjsMarker2800)"></path></g><g id="SvgjsG2802"><path id="SvgjsPath2803" d="M1309 195L1273.25 195L1273.25 195L1237.5 195" stroke="#ff3333" stroke-width="2" fill="none" marker-end="url(#SvgjsMarker2804)"></path></g><g id="SvgjsG2806" transform="translate(969.75,357)"><path id="SvgjsPath2807" d="M 0 0L 116.5 0L 132.5 16L 132.5 44L 0 44L 0 0Z" stroke="none" fill-opacity="1" fill="#ff9999"></path><path id="SvgjsPath2808" d="M 116.5 0L 116.5 16L 132.5 16Z" stroke="none" fill-opacity="1" fill="#cdcdcd"></path><path id="SvgjsPath2809" d="M 0 0L 116.5 0L 132.5 16L 132.5 44L 0 44L 0 0Z" stroke="none" fill="none"></path><g id="SvgjsG2810"><text id="SvgjsText2811" font-family="微软雅黑" text-anchor="middle" font-size="13px" width="82" fill="#323232" font-weight="400" align="middle" anchor="middle" family="微软雅黑" size="13px" weight="400" font-style="" y="4.05" transform="rotate(0)"><tspan id="SvgjsTspan2812" dy="16" x="66.5"><tspan id="SvgjsTspan2813" style="text-decoration:;">git branch new-</tspan></tspan><tspan id="SvgjsTspan2814" dy="16" x="66.5"><tspan id="SvgjsTspan2815" style="text-decoration:;">branch</tspan></tspan></text></g></g><g id="SvgjsG2816" transform="translate(723,861)"><path id="SvgjsPath2817" d="M 0 37.5C 0 -12.5 81 -12.5 81 37.5C 81 87.5 0 87.5 0 37.5Z" stroke="#323232" stroke-width="2" fill-opacity="1" fill="#ffffff"></path><g id="SvgjsG2818"><text id="SvgjsText2819" font-family="微软雅黑" text-anchor="middle" font-size="13px" width="40" fill="#323232" font-weight="400" align="middle" anchor="middle" family="微软雅黑" size="13px" weight="400" font-style="" y="27.55" transform="rotate(0)"><tspan id="SvgjsTspan2820" dy="16" x="40.5"><tspan id="SvgjsTspan2821" style="text-decoration:;">commit</tspan></tspan></text></g></g><g id="SvgjsG2822" transform="translate(584.5,855.5)"><path id="SvgjsPath2823" d="M 45.75 0L 91.5 72L 0 72Z" stroke="#323232" stroke-width="2" fill-opacity="1" fill="#ffffff"></path><g id="SvgjsG2824"><text id="SvgjsText2825" font-family="微软雅黑" text-anchor="middle" font-size="13px" width="19" fill="#323232" font-weight="400" align="middle" anchor="middle" family="微软雅黑" size="13px" weight="400" font-style="" y="35.05" transform="rotate(0)"><tspan id="SvgjsTspan2826" dy="16" x="46"><tspan id="SvgjsTspan2827" style="text-decoration:;">tree</tspan></tspan></text></g></g><g id="SvgjsG2828"><path id="SvgjsPath2829" d="M1186.5 242.5L1186.5 269.25L1186.5 269.25L1186.5 296" stroke="#ff3333" stroke-width="2" fill="none" marker-end="url(#SvgjsMarker2830)"></path></g><g id="SvgjsG2832"><path id="SvgjsPath2833" d="M878 132L878 172.5L755.5 172.5" stroke="#000000" stroke-width="2" fill="none" marker-end="url(#SvgjsMarker2834)"></path></g><g id="SvgjsG2836"><path id="SvgjsPath2837" d="M672 107L750 107L750 107L828 107" stroke="#000000" stroke-width="2" fill="none" marker-end="url(#SvgjsMarker2838)"></path></g><g id="SvgjsG2840" transform="translate(439,867.5)"><path id="SvgjsPath2841" d="M 0 0L 87 0L 87 56L 0 56Z" stroke="#323232" stroke-width="2" fill-opacity="1" fill="#ffffff"></path><g id="SvgjsG2842"><text id="SvgjsText2843" font-family="微软雅黑" text-anchor="middle" font-size="13px" width="23" fill="#323232" font-weight="400" align="middle" anchor="middle" family="微软雅黑" size="13px" weight="400" font-style="" y="18.05" transform="rotate(0)"><tspan id="SvgjsTspan2844" dy="16" x="43.5"><tspan id="SvgjsTspan2845" style="text-decoration:;">blob</tspan></tspan></text></g></g><g id="SvgjsG2846" transform="translate(118,746)"><path id="SvgjsPath2847" d="M 0 0L 421 0L 437 16L 437 66L 0 66L 0 0Z" stroke="none" fill-opacity="1" fill="#ffffaa"></path><path id="SvgjsPath2848" d="M 421 0L 421 16L 437 16Z" stroke="none" fill-opacity="1" fill="#cdcdcd"></path><path id="SvgjsPath2849" d="M 0 0L 421 0L 437 16L 437 66L 0 66L 0 0Z" stroke="none" fill="none"></path><g id="SvgjsG2850"><text id="SvgjsText2851" font-family="微软雅黑" text-anchor="middle" font-size="13px" width="296" fill="#323232" font-weight="400" align="middle" anchor="middle" family="微软雅黑" size="13px" weight="400" font-style="" y="23.05" transform="rotate(0)"><tspan id="SvgjsTspan2852" dy="16" x="218.5"><tspan id="SvgjsTspan2853" style="text-decoration:;">两个文件。file1 和 file2 里面内容分别是：111 和 222</tspan></tspan></text></g></g><g id="SvgjsG2854" transform="translate(572,752)"><path id="SvgjsPath2855" d="M 0 0L 359.5 0L 375.5 16L 375.5 64L 0 64L 0 0Z" stroke="none" fill-opacity="1" fill="#ffffaa"></path><path id="SvgjsPath2856" d="M 359.5 0L 359.5 16L 375.5 16Z" stroke="none" fill-opacity="1" fill="#cdcdcd"></path><path id="SvgjsPath2857" d="M 0 0L 359.5 0L 375.5 16L 375.5 64L 0 64L 0 0Z" stroke="none" fill="none"></path><g id="SvgjsG2858"><text id="SvgjsText2859" font-family="微软雅黑" text-anchor="middle" font-size="13px" width="192" fill="#323232" font-weight="400" align="middle" anchor="middle" family="微软雅黑" size="13px" weight="400" font-style="" y="22.05" transform="rotate(0)"><tspan id="SvgjsTspan2860" dy="16" x="188"><tspan id="SvgjsTspan2861" style="text-decoration:;">两个文件。file1 的内容改为： 333</tspan></tspan></text></g></g><g id="SvgjsG2862" transform="translate(974,752)"><path id="SvgjsPath2863" d="M 0 0L 474 0L 490 16L 490 64L 0 64L 0 0Z" stroke="none" fill-opacity="1" fill="#ffffaa"></path><path id="SvgjsPath2864" d="M 474 0L 474 16L 490 16Z" stroke="none" fill-opacity="1" fill="#cdcdcd"></path><path id="SvgjsPath2865" d="M 0 0L 474 0L 490 16L 490 64L 0 64L 0 0Z" stroke="none" fill="none"></path><g id="SvgjsG2866"><text id="SvgjsText2867" font-family="微软雅黑" text-anchor="middle" font-size="13px" width="291" fill="#323232" font-weight="400" align="middle" anchor="middle" family="微软雅黑" size="13px" weight="400" font-style="" y="-9.95" transform="rotate(0)"><tspan id="SvgjsTspan2868" dy="16" x="245"><tspan id="SvgjsTspan2869" style="text-decoration:;"> </tspan></tspan><tspan id="SvgjsTspan2870" dy="16" x="245"><tspan id="SvgjsTspan2871" style="text-decoration:;">1. git branch new-branch 新建一个分支</tspan></tspan><tspan id="SvgjsTspan2872" dy="16" x="245"><tspan id="SvgjsTspan2873" style="text-decoration:;font-size: inherit;">2. git checkout new-branch 切换分支  </tspan></tspan><tspan id="SvgjsTspan2874" dy="16" x="245"><tspan id="SvgjsTspan2875" style="text-decoration:;">3.新加一个文件 file3，里面内容是 new-branch-file3  </tspan></tspan><tspan id="SvgjsTspan2876" dy="16" x="245"><tspan id="SvgjsTspan2877" style="text-decoration:;"> </tspan></tspan></text></g></g><g id="SvgjsG2878" transform="translate(118,861.75)"><path id="SvgjsPath2879" d="M 0 0L 231 0L 247 16L 247 73.5L 0 73.5L 0 0Z" stroke="none" fill-opacity="1" fill="#ffffaa"></path><path id="SvgjsPath2880" d="M 231 0L 231 16L 247 16Z" stroke="none" fill-opacity="1" fill="#cdcdcd"></path><path id="SvgjsPath2881" d="M 0 0L 231 0L 247 16L 247 73.5L 0 73.5L 0 0Z" stroke="none" fill="none"></path><g id="SvgjsG2882"><text id="SvgjsText2883" font-family="微软雅黑" text-anchor="middle" font-size="13px" width="136" fill="#323232" font-weight="400" align="middle" anchor="middle" family="微软雅黑" size="13px" weight="400" font-style="" y="26.8" transform="rotate(0)"><tspan id="SvgjsTspan2884" dy="16" x="123.5"><tspan id="SvgjsTspan2885" style="text-decoration:;">.git/objects 下的 obj 类型</tspan></tspan></text></g></g><g id="SvgjsG2886" transform="translate(1497,85)"><path id="SvgjsPath2887" d="M 16.666666666666668 0L 83.33333333333333 0C 105.55555555555556 0 105.55555555555556 50 83.33333333333333 50L 16.666666666666668 50C -5.555555555555556 50 -5.555555555555556 0 16.666666666666668 0Z" stroke="#323232" stroke-width="2" fill-opacity="1" fill="#ff00ff"></path><g id="SvgjsG2888"><text id="SvgjsText2889" font-family="微软雅黑" text-anchor="middle" font-size="13px" width="35" fill="#323232" font-weight="400" align="middle" anchor="middle" family="微软雅黑" size="13px" weight="400" font-style="" y="15.05" transform="rotate(0)"><tspan id="SvgjsTspan2890" dy="16" x="50"><tspan id="SvgjsTspan2891" style="text-decoration:;">master</tspan></tspan></text></g></g><g id="SvgjsG2892" transform="translate(1497,183)"><path id="SvgjsPath2893" d="M 16.666666666666668 0L 83.33333333333333 0C 105.55555555555556 0 105.55555555555556 50 83.33333333333333 50L 16.666666666666668 50C -5.555555555555556 50 -5.555555555555556 0 16.666666666666668 0Z" stroke="#323232" stroke-width="2" fill-opacity="1" fill="#ff00ff"></path><g id="SvgjsG2894"><text id="SvgjsText2895" font-family="微软雅黑" text-anchor="middle" font-size="13px" width="36" fill="#323232" font-weight="400" align="middle" anchor="middle" family="微软雅黑" size="13px" weight="400" font-style="" y="15.05" transform="rotate(0)"><tspan id="SvgjsTspan2896" dy="16" x="50"><tspan id="SvgjsTspan2897" style="text-decoration:;">HEAD</tspan></tspan></text></g></g><g id="SvgjsG2898"><path id="SvgjsPath2899" d="M1497 110L1186.5 110L1186.5 147.5" stroke="#ff00ff" stroke-width="2" fill="none" marker-end="url(#SvgjsMarker2900)"></path><rect id="SvgjsRect2902" width="64" height="16" x="1291" y="102" fill="#ffffff"></rect><text id="SvgjsText2903" font-family="微软雅黑" text-anchor="middle" font-size="13px" width="64" fill="#323232" font-weight="400" align="top" anchor="middle" family="微软雅黑" size="13px" weight="400" font-style="" y="100.05" transform="rotate(0)"><tspan id="SvgjsTspan2904" dy="16" x="1323"><tspan id="SvgjsTspan2905" style="text-decoration:;">fast-forward</tspan></tspan></text></g><g id="SvgjsG2906" transform="translate(1480,755)"><path id="SvgjsPath2907" d="M 0 0L 240 0L 256 16L 256 48L 0 48L 0 0Z" stroke="none" fill-opacity="1" fill="#ffffaa"></path><path id="SvgjsPath2908" d="M 240 0L 240 16L 256 16Z" stroke="none" fill-opacity="1" fill="#cdcdcd"></path><path id="SvgjsPath2909" d="M 0 0L 240 0L 256 16L 256 48L 0 48L 0 0Z" stroke="none" fill="none"></path><g id="SvgjsG2910"><text id="SvgjsText2911" font-family="微软雅黑" text-anchor="middle" font-size="13px" width="127" fill="#323232" font-weight="400" align="middle" anchor="middle" family="微软雅黑" size="13px" weight="400" font-style="" y="-9.95" transform="rotate(0)"><tspan id="SvgjsTspan2912" dy="16" x="128"><tspan id="SvgjsTspan2913" style="text-decoration:;"> </tspan></tspan><tspan id="SvgjsTspan2914" dy="16" x="128"><tspan id="SvgjsTspan2915" style="text-decoration:;">1. git checkout master</tspan></tspan><tspan id="SvgjsTspan2916" dy="16" x="128"><tspan id="SvgjsTspan2917" style="text-decoration:;font-size: inherit;">2. git merge new-branch</tspan></tspan><tspan id="SvgjsTspan2918" dy="16" x="128"><tspan id="SvgjsTspan2919" style="text-decoration:;"> </tspan></tspan></text></g></g><g id="SvgjsG2920"><path id="SvgjsPath2921" d="M1547 183L1547 159L1547 159L1547 135" stroke="#323232" stroke-width="2" fill="none" marker-end="url(#SvgjsMarker2922)"></path></g></svg>